<?xml version="1.0" encoding="utf-8"?>
<!-- Generator: Adobe Illustrator 18.1.1, SVG Export Plug-In . SVG Version: 6.00 Build 0)  -->
<svg version="1.1" id="Layer_1" xmlns="http://www.w3.org/2000/svg" xmlns:xlink="http://www.w3.org/1999/xlink" x="0px" y="0px"
	 viewBox="0 0 35 35" enable-background="new 0 0 35 35" xml:space="preserve">
<circle fill="#507CBE" cx="17.5" cy="17.5" r="17.5"/>
<path fill="#FFFFFF" d="M14.5,11.5c0-0.1,0-0.5,0.1-0.9c0-0.5,0.2-1,0.5-1.5c0.3-0.5,0.8-1,1.6-1.4C17.4,7.2,18.4,7,19.8,7h3.8v4.2
	h-2.8c-0.3,0-0.5,0.1-0.8,0.3c-0.2,0.2-0.4,0.4-0.4,0.6v2.6h3.9c0,0.5-0.1,1-0.1,1.5l-0.2,1.3c-0.1,0.4-0.1,0.8-0.2,1.2h-3.5v11.5
	h-5.2V18.6H12v-3.9h2.5V11.5z"/>
</svg>
