<?xml version="1.0" encoding="utf-8"?>
<!-- Generator: Adobe Illustrator 18.1.1, SVG Export Plug-In . SVG Version: 6.00 Build 0)  -->
<svg version="1.1" id="Layer_2" xmlns="http://www.w3.org/2000/svg" xmlns:xlink="http://www.w3.org/1999/xlink" x="0px" y="0px"
	 viewBox="14.5 14.5 35 35" enable-background="new 14.5 14.5 35 35" xml:space="preserve">
<path fill="#1186C8" d="M32,49.4c9.6,0,17.4-7.8,17.4-17.4c0-9.6-7.8-17.4-17.4-17.4S14.6,22.4,14.6,32S22.4,49.4,32,49.4"/>
<path fill="#FFFFFF" d="M27.2,39.3h-3.4V28.4h3.4V39.3z M25.4,27.1L25.4,27.1c-1.3,0-2.1-0.8-2.1-1.9c0-1.1,0.8-1.9,2.1-1.9
	c1.3,0,2,0.8,2,1.9C27.5,26.2,26.7,27.1,25.4,27.1z M40.8,39.3h-3.9v-5.6c0-1.5-0.6-2.5-1.9-2.5c-1,0-1.6,0.7-1.8,1.3
	c-0.1,0.2-0.1,0.6-0.1,0.9v5.9h-3.8c0,0,0-10,0-10.9h3.8v1.7c0.2-0.7,1.4-1.8,3.4-1.8c2.4,0,4.3,1.6,4.3,4.9V39.3z"/>
</svg>
