<?xml version="1.0" encoding="utf-8"?>
<!-- Generator: Adobe Illustrator 18.1.1, SVG Export Plug-In . SVG Version: 6.00 Build 0)  -->
<svg version="1.1" id="Layer_1" xmlns="http://www.w3.org/2000/svg" xmlns:xlink="http://www.w3.org/1999/xlink" x="0px" y="0px"
	 viewBox="0 0 35 35" enable-background="new 0 0 35 35" xml:space="preserve">
<circle fill="#65CBED" cx="17.5" cy="17.5" r="17.5"/>
<path fill="#FFFFFF" d="M26.7,13.8c0.4,7.4-5.3,13.7-12.7,14.1c-2.8,0.1-5.5-0.6-7.9-2.1c2.4,0.2,4.8-0.6,6.7-2.1
	c-1.8-0.2-3.4-1.5-4-3.2c0.7,0.1,1.4,0.1,2.1-0.1c-2.2-0.4-3.8-2.3-3.9-4.5c0.6,0.2,1.3,0.4,1.9,0.3c-1.9-1.5-2.4-4.1-1.2-6.2
	c2.4,2.9,5.9,4.7,9.7,4.9c-0.7-2.4,0.6-5,3-5.7c1.8-0.6,3.7,0,4.9,1.5c1.1-0.2,2.1-0.6,3-1.2c-0.3,1.1-1.1,2.1-2.1,2.6
	c0.9-0.1,1.8-0.3,2.7-0.8C28.5,12.5,27.7,13.3,26.7,13.8z"/>
</svg>
