<?xml version="1.0" encoding="utf-8"?>
<!-- Generator: Adobe Illustrator 18.1.1, SVG Export Plug-In . SVG Version: 6.00 Build 0)  -->
<svg version="1.1" id="Layer_1" xmlns="http://www.w3.org/2000/svg" xmlns:xlink="http://www.w3.org/1999/xlink" x="0px" y="0px"
	 viewBox="0 0 64 64" enable-background="new 0 0 64 64" xml:space="preserve">
<g id="Layer_3">
	<path fill="#ED6B52" d="M32,64c17.7,0,32-14.3,32-32S49.7,0,32,0S0,14.3,0,32S14.3,64,32,64"/>
	<path fill="#FFFFFF" d="M38.5,21.2v6.1c-0.1,0.2-0.3,0.3-0.5,0.4c-0.2,0.1-0.3,0.2-0.5,0.2c-0.1,0-0.3,0-0.3-0.1
		c-0.1-0.1-0.1-0.2-0.1-0.4v-6.2h-1.6v6.7c0,0.5,0.1,0.8,0.3,1.1c0.2,0.2,0.5,0.4,0.9,0.4c0.3,0,0.6-0.1,1-0.2
		c0.3-0.2,0.6-0.4,0.9-0.8v0.9h1.6v-8L38.5,21.2C38.5,21.2,38.5,21.2,38.5,21.2z M33.5,21.6c-0.4-0.4-1-0.6-1.7-0.6
		c-0.7,0-1.3,0.2-1.8,0.6c-0.4,0.4-0.7,0.9-0.7,1.5v4.2c0,0.7,0.2,1.2,0.6,1.6c0.4,0.4,1,0.6,1.7,0.6c0.7,0,1.3-0.2,1.8-0.6
		c0.4-0.4,0.6-0.9,0.6-1.6v-4.1C34.2,22.5,33.9,22,33.5,21.6z M32.5,27.4c0,0.2-0.1,0.4-0.2,0.5C32.2,28,32,28,31.8,28
		c-0.2,0-0.4-0.1-0.5-0.2c-0.1-0.1-0.2-0.3-0.2-0.5V23c0-0.2,0.1-0.3,0.2-0.4c0.1-0.1,0.3-0.2,0.5-0.2c0.2,0,0.4,0,0.5,0.2
		c0.1,0.1,0.2,0.2,0.2,0.4L32.5,27.4L32.5,27.4z M27.4,18.3l-1.1,4.4h-0.1l-1.2-4.4h-1.9l2.2,6.6v4.3h1.9v-4.5l2.1-6.4L27.4,18.3
		C27.4,18.3,27.4,18.3,27.4,18.3z M40.2,37.5c0.1,0.1,0.1,0.4,0.1,0.6v0.7h-1.3v-0.7c0-0.3,0-0.5,0.1-0.6c0.1-0.1,0.3-0.2,0.5-0.2
		C40,37.3,40.1,37.4,40.2,37.5z M35.2,37.5c-0.1-0.1-0.3-0.2-0.5-0.2c-0.1,0-0.2,0-0.3,0.1c-0.1,0-0.2,0.1-0.3,0.2v4.5
		c0.1,0.1,0.2,0.2,0.4,0.3c0.1,0,0.2,0.1,0.3,0.1c0.2,0,0.3,0,0.4-0.2c0.1-0.1,0.1-0.3,0.1-0.5V38C35.3,37.8,35.3,37.6,35.2,37.5z
		 M35.2,37.5c-0.1-0.1-0.3-0.2-0.5-0.2c-0.1,0-0.2,0-0.3,0.1c-0.1,0-0.2,0.1-0.3,0.2v4.5c0.1,0.1,0.2,0.2,0.4,0.3
		c0.1,0,0.2,0.1,0.3,0.1c0.2,0,0.3,0,0.4-0.2c0.1-0.1,0.1-0.3,0.1-0.5V38C35.3,37.8,35.3,37.6,35.2,37.5z M43.4,31.9H20.6
		c-2.5,0-4.6,2.1-4.6,4.6v4.7c0,2.5,2.1,4.6,4.6,4.6h22.9c2.5,0,4.6-2,4.6-4.6v-4.7C48,33.9,45.9,31.9,43.4,31.9z M26.7,35.1H25v8.5
		h-1.6v-8.5h-1.7v-1.4h5L26.7,35.1L26.7,35.1z M31.5,43.5h-1.5v-0.8c-0.3,0.3-0.5,0.5-0.8,0.7c-0.3,0.2-0.6,0.2-0.8,0.2
		c-0.3,0-0.6-0.1-0.8-0.3c-0.2-0.2-0.2-0.5-0.2-1v-6.1h1.5v5.6c0,0.2,0,0.3,0.1,0.4c0,0.1,0.2,0.1,0.3,0.1c0.1,0,0.2,0,0.4-0.2
		c0.2-0.1,0.3-0.2,0.4-0.4v-5.6h1.5L31.5,43.5L31.5,43.5z M36.8,42c0,0.5-0.1,0.9-0.3,1.2c-0.2,0.3-0.6,0.4-1,0.4
		c-0.3,0-0.5,0-0.8-0.2c-0.2-0.1-0.4-0.3-0.6-0.5v0.6h-1.5v-9.9h1.5v3.2c0.2-0.2,0.4-0.4,0.6-0.5c0.2-0.1,0.4-0.2,0.7-0.2
		c0.4,0,0.8,0.2,1.1,0.5c0.2,0.3,0.4,0.8,0.4,1.4V42z M41.9,40h-2.8v1.4c0,0.4,0,0.6,0.1,0.8c0.1,0.2,0.3,0.2,0.5,0.2
		c0.2,0,0.4-0.1,0.5-0.2c0.1-0.1,0.1-0.4,0.1-0.8v-0.3h1.5v0.4c0,0.8-0.2,1.3-0.6,1.7c-0.4,0.4-0.9,0.6-1.6,0.6
		c-0.7,0-1.2-0.2-1.5-0.6c-0.4-0.4-0.6-1-0.6-1.7v-3.3c0-0.6,0.2-1.1,0.6-1.5c0.4-0.4,0.9-0.6,1.6-0.6c0.7,0,1.2,0.2,1.5,0.6
		c0.4,0.4,0.5,0.9,0.5,1.6L41.9,40C41.9,40,41.9,40,41.9,40z M34.7,37.3c-0.1,0-0.2,0-0.3,0.1c-0.1,0-0.2,0.1-0.3,0.2v4.5
		c0.1,0.1,0.2,0.2,0.4,0.3c0.1,0,0.2,0.1,0.3,0.1c0.2,0,0.3,0,0.4-0.2c0.1-0.1,0.1-0.3,0.1-0.5V38c0-0.2,0-0.4-0.2-0.5
		C35.1,37.3,34.9,37.3,34.7,37.3z M35.2,37.5c-0.1-0.1-0.3-0.2-0.5-0.2c-0.1,0-0.2,0-0.3,0.1c-0.1,0-0.2,0.1-0.3,0.2v4.5
		c0.1,0.1,0.2,0.2,0.4,0.3c0.1,0,0.2,0.1,0.3,0.1c0.2,0,0.3,0,0.4-0.2c0.1-0.1,0.1-0.3,0.1-0.5V38C35.3,37.8,35.3,37.6,35.2,37.5z
		 M35.2,37.5c-0.1-0.1-0.3-0.2-0.5-0.2c-0.1,0-0.2,0-0.3,0.1c-0.1,0-0.2,0.1-0.3,0.2v4.5c0.1,0.1,0.2,0.2,0.4,0.3
		c0.1,0,0.2,0.1,0.3,0.1c0.2,0,0.3,0,0.4-0.2c0.1-0.1,0.1-0.3,0.1-0.5V38C35.3,37.8,35.3,37.6,35.2,37.5z"/>
</g>
</svg>
