<?xml version="1.0" encoding="utf-8"?>
<!-- Generator: Adobe Illustrator 18.1.1, SVG Export Plug-In . SVG Version: 6.00 Build 0)  -->
<svg version="1.1" id="Layer_1" xmlns="http://www.w3.org/2000/svg" xmlns:xlink="http://www.w3.org/1999/xlink" x="0px" y="0px"
	 viewBox="14.5 14.5 35 35" enable-background="new 14.5 14.5 35 35" xml:space="preserve">
<g id="Layer_4">
	<path fill="#0000a0" d="M32,49.5c9.7,0,17.5-7.8,17.5-17.5c0-9.7-7.8-17.5-17.5-17.5S14.5,22.3,14.5,32S22.3,49.5,32,49.5"/>
	<g>
		<path fill="#FFFFFF" d="M24.5,26.5v11h16v-11H24.5z M32.5,33.3l-6.6-6h13.1L32.5,33.3z M29.9,32l-4.6,4.2v-8.4L29.9,32z
			 M30.5,32.5l2,1.8l2-1.8l4.5,4.1H25.9L30.5,32.5z M35.1,32l4.6-4.2v8.4L35.1,32z"/>
	</g>
</g>
</svg>
