<?xml version="1.0" encoding="utf-8"?>
<!-- Generator: Adobe Illustrator 18.1.1, SVG Export Plug-In . SVG Version: 6.00 Build 0)  -->
<svg version="1.1" id="Layer_1" xmlns="http://www.w3.org/2000/svg" xmlns:xlink="http://www.w3.org/1999/xlink" x="0px" y="0px"
	 viewBox="0 0 35 35" enable-background="new 0 0 35 35" xml:space="preserve">
<circle fill="#0000a0" cx="17.5" cy="17.5" r="17.5"/>
<rect x="14" y="22" fill="#FFFFFF" width="7" height="1"/>
<rect x="14" y="20" fill="#FFFFFF" width="7" height="1"/>
<rect x="14" y="18" fill="#FFFFFF" width="7" height="1"/>
<path display="none" fill="#FFFFFF" d="M25,14h-2v-4H12v4h-2c-0.6,0-1,0.4-1,1v5c0,0.6,0.4,1,1,1h2v4h11v-4h2c0.6,0,1-0.4,1-1v-5
	C26,14.4,25.6,14,25,14z M13,11h9v3h-9V11z M13,24v-7h9v7H13z"/>
<path fill="#FFFFFF" d="M25,14h-2v-3c0-0.5-0.5-1-1-1h-9c-0.5,0-1,0.5-1,1v3h-2c-0.5,0-1,0.5-1,1v5c0,0.5,0.5,1,1,1h2v3
	c0,0.5,0.5,1,1,1h9c0.5,0,1-0.5,1-1v-3h2c0.5,0,1-0.5,1-1v-5C26,14.5,25.5,14,25,14z M13,11h9v3h-9V11z M22,24h-9v-3v-4h9v4V24z"/>
</svg>
